<svg viewBox="0 0 175 174" fill="none" xmlns="http://www.w3.org/2000/svg">
<path d="M174.638 94.88C170.685 137.524 134.927 174 87.5042 174C28.2916 174 -13.597 116.602 4.08775 60.93C10.1769 41.6365 23.0624 24.7167 40.6085 13.5932C44.2425 11.3023 48.0846 9.24595 52.0931 7.46565C97.5741 -12.6145 151.086 9.25976 169.09 55.7271C174.139 68.7964 175.817 82.1142 174.638 94.88Z" fill="url(#paint0_radial)"/>
<path d="M128.713 163.731C116.438 170.273 102.401 173.985 87.4903 173.985C53.5217 173.985 24.0748 154.705 9.60803 126.538C15.7387 129.657 27.0431 134.611 40.1784 136.64C59.2363 139.58 82.3027 135.729 93.1494 141.25C111.236 150.455 114.177 161.026 128.713 163.731Z" fill="url(#paint1_linear)"/>
<path d="M55.1039 123.846C38.2791 124.991 14.9075 117.069 4.03315 112.943C1.46713 104.745 0.0800781 96.037 0.0800781 87.0113C0.0800781 83.7681 0.2604 80.5663 0.60716 77.4197C5.35083 83.0091 16.2252 94.6707 29.9014 101.847C48.4184 111.577 77.7265 122.314 55.1039 123.846Z" fill="url(#paint2_linear)"/>
<path d="M162.488 131.741C159.2 137.193 155.317 142.257 150.948 146.853C139.726 143.803 127.215 138.283 117.076 129.74C99.0307 114.545 96.5063 107.742 54.8535 94.4376C25.7951 85.1497 10.496 69.8998 3.90759 61.5227C5.96041 54.8431 8.80382 48.4948 12.3408 42.6018C20.5936 51.4757 38.8887 68.8647 62.0661 77.0348C93.9541 88.2963 99.0862 87.2612 127.881 113.359C140.143 124.496 152.432 129.574 162.488 131.741Z" fill="url(#paint3_linear)"/>
<path d="M174.915 87.0119C174.915 96.7691 173.306 106.14 170.324 114.89C161.877 114.71 148.797 111.246 134.025 95.9687C108.31 69.3607 70.2631 64.2406 69.7499 55.5461C69.2367 46.8516 108.837 54.0142 132.999 67.3182C150.378 76.896 163.25 83.8102 174.846 83.5065C174.887 84.6658 174.915 85.8389 174.915 87.0119Z" fill="url(#paint4_linear)"/>
<path d="M51.7632 38.6681C41.2905 33.81 29.1394 33.0371 28.6261 37.1362C28.1129 41.2352 35.8252 54.5261 49.7102 51.9728C63.5814 49.4057 59.4756 42.2427 51.7632 38.6681Z" fill="url(#paint5_linear)"/>
<path d="M127.34 143.043C122.832 140.573 107.283 131.781 117.062 149.695C120.904 156.734 137.633 148.674 127.34 143.043Z" fill="#0A69D2"/>
<path d="M106.257 133.825C104.149 133.977 105.231 138.435 107.284 138.945C109.35 139.456 113.47 133.314 106.257 133.825Z" fill="url(#paint6_linear)"/>
<path opacity="0.45" d="M170.286 114.543C168.275 120.464 165.639 126.081 162.463 131.353C159.176 136.804 155.292 141.869 150.923 146.465C144.501 153.213 136.997 158.927 128.702 163.343C116.427 169.885 102.39 173.597 87.4795 173.597C53.5109 173.597 24.0641 154.317 9.59731 126.15C7.36418 121.816 5.49169 117.276 4.02143 112.556C1.45541 104.358 0.0683594 95.6501 0.0683594 86.6244C0.0683594 83.3812 0.248681 80.1794 0.595441 77.0328C1.19187 71.5677 2.30149 66.2406 3.88272 61.1205C3.9382 60.9273 4.00756 60.7203 4.06304 60.5271C16.7683 46.9609 40.7502 54.7445 52.7758 72.5476C70.8212 99.2935 113.958 178.979 170.286 114.543Z" fill="url(#paint7_linear)"/>
<path opacity="0.55" d="M170.699 113.759C169.118 118.879 166.191 125.614 162.488 131.741C123.082 197.047 24.8659 183.591 3.61646 111.537C14.5324 126.359 29.1934 137.579 48.6813 143.044C118.144 162.476 153.736 136.282 170.699 113.759Z" fill="url(#paint8_linear)"/>
<path d="M169.09 55.7275C174.153 68.7831 175.817 82.1147 174.638 94.8804C171.975 72.3713 160.768 35.7716 117.575 18.7138C85.9231 6.21026 59.4168 8.25277 40.5947 13.5937C44.2288 11.3027 48.0709 9.24642 52.0794 7.46612C97.5743 -12.6141 151.086 9.27402 169.09 55.7275Z" fill="url(#paint9_linear)"/>
<defs>
<radialGradient id="paint0_radial" cx="0" cy="0" r="1" gradientUnits="userSpaceOnUse" gradientTransform="translate(85.1778 53.228) scale(87.4575 87.0188)">
<stop stop-color="#55B8FF"/>
<stop offset="1" stop-color="#0A69D2"/>
</radialGradient>
<linearGradient id="paint1_linear" x1="91.42" y1="201.446" x2="19.5483" y2="17.787" gradientUnits="userSpaceOnUse">
<stop stop-color="#0A69D2"/>
<stop offset="1" stop-color="#004FA6"/>
</linearGradient>
<linearGradient id="paint2_linear" x1="70.3779" y1="209.679" x2="-1.49369" y2="26.0211" gradientUnits="userSpaceOnUse">
<stop stop-color="#0A69D2"/>
<stop offset="1" stop-color="#0A69D2" stop-opacity="0"/>
</linearGradient>
<linearGradient id="paint3_linear" x1="120.174" y1="190.194" x2="48.3019" y2="6.53545" gradientUnits="userSpaceOnUse">
<stop stop-color="#0A42D2"/>
<stop offset="1" stop-color="#0A69D2" stop-opacity="0.31"/>
</linearGradient>
<linearGradient id="paint4_linear" x1="163.249" y1="173.336" x2="91.3773" y2="-10.3223" gradientUnits="userSpaceOnUse">
<stop stop-color="#0A69D2"/>
<stop offset="1" stop-color="#0A69D2" stop-opacity="0.57"/>
</linearGradient>
<linearGradient id="paint5_linear" x1="104.685" y1="196.266" x2="32.8091" y2="12.5971" gradientUnits="userSpaceOnUse">
<stop stop-color="#0A69D2"/>
<stop offset="1" stop-color="#0A69D2" stop-opacity="0.37"/>
</linearGradient>
<linearGradient id="paint6_linear" x1="128.019" y1="187.127" x2="56.1436" y2="3.45781" gradientUnits="userSpaceOnUse">
<stop stop-color="#0A69D2"/>
<stop offset="1" stop-color="#0A69D2" stop-opacity="0"/>
</linearGradient>
<linearGradient id="paint7_linear" x1="68.8348" y1="176.281" x2="94.4048" y2="49.622" gradientUnits="userSpaceOnUse">
<stop stop-color="#0A69D2" stop-opacity="0"/>
<stop offset="1" stop-color="#0A69D2" stop-opacity="0.42"/>
</linearGradient>
<linearGradient id="paint8_linear" x1="96.3167" y1="195.184" x2="86.6433" y2="107.172" gradientUnits="userSpaceOnUse">
<stop stop-color="#0A69D2"/>
<stop offset="1" stop-color="#0A69D2" stop-opacity="0"/>
</linearGradient>
<linearGradient id="paint9_linear" x1="197.027" y1="-55.0712" x2="100.939" y2="63.5899" gradientUnits="userSpaceOnUse">
<stop stop-color="#0A69D2"/>
<stop offset="1" stop-color="#0A69D2" stop-opacity="0"/>
</linearGradient>
</defs>
</svg>
